<svg width="966" height="221" viewBox="0 0 966 221" fill="none" xmlns="http://www.w3.org/2000/svg">
<path fill-rule="evenodd" clip-rule="evenodd" d="M0 39.6664L0.0406936 39.6239C11.0074 41.2693 24.1677 42.6598 38.9285 43.7183L87.6004 90.3336L91.3002 93.8771V99V158H90.3368C81.1372 156.821 73.1595 154.663 67.3002 151.86V104.123L0 39.6664Z" fill="#2E5262"/>
<path fill-rule="evenodd" clip-rule="evenodd" d="M215.601 40.0425L215.56 40C204.593 41.6454 191.433 43.0359 176.672 44.0944L128 90.7097L124.3 94.2532V99.3761V158.376H125.264C134.463 157.198 142.441 155.04 148.3 152.236V104.499L215.601 40.0425Z" fill="#2E5262"/>
<circle cx="79.8003" cy="22.5" r="22.5" fill="#5ABC76"/>
<circle cx="111.3" cy="110" r="13" fill="#DB9D41"/>
<circle cx="95.8003" cy="80.5" r="16.5" fill="#5A9FBC"/>
<circle cx="136.116" cy="51.8155" r="26.7671" transform="rotate(-6.96528 136.116 51.8155)" fill="#EE6D6D"/>
<path d="M258.13 140L249.22 68.5H268.58L269.46 103.92V122.4H269.9C270.34 119.32 270.89 116.24 271.55 113.16C272.21 110.08 272.833 107 273.42 103.92L277.38 86.54H288.38L292.01 103.92C292.523 106.853 293.11 109.86 293.77 112.94C294.43 116.02 295.017 119.173 295.53 122.4H295.97V103.92L296.85 68.5H314.89L306.64 140H287.06L283.87 120.42C283.503 118.073 283.137 115.69 282.77 113.27C282.477 110.85 282.293 108.577 282.22 106.45H281.89C281.743 108.577 281.523 110.85 281.23 113.27C280.937 115.69 280.607 118.073 280.24 120.42L277.27 140H258.13ZM349.057 141.32C344.73 141.32 340.66 140.697 336.847 139.45C333.107 138.13 329.844 136.26 327.057 133.84C324.344 131.347 322.18 128.303 320.567 124.71C319.027 121.117 318.257 117.047 318.257 112.5C318.257 108.027 319.064 103.993 320.677 100.4C322.29 96.8067 324.417 93.8 327.057 91.38C329.77 88.8867 332.85 86.98 336.297 85.66C339.817 84.34 343.41 83.68 347.077 83.68C351.404 83.68 355.18 84.3767 358.407 85.77C361.707 87.1633 364.457 89.07 366.657 91.49C368.857 93.91 370.507 96.7333 371.607 99.96C372.707 103.187 373.257 106.633 373.257 110.3C373.257 111.987 373.147 113.563 372.927 115.03C372.78 116.497 372.634 117.56 372.487 118.22H337.177C337.984 121.3 339.597 123.537 342.017 124.93C344.437 126.323 347.664 127.02 351.697 127.02C353.897 127.02 356.024 126.763 358.077 126.25C360.204 125.663 362.477 124.82 364.897 123.72L371.057 134.94C367.757 137.067 364.127 138.68 360.167 139.78C356.207 140.807 352.504 141.32 349.057 141.32ZM347.737 97.98C342.31 97.98 338.827 100.62 337.287 105.9H356.537C355.73 100.62 352.797 97.98 347.737 97.98ZM414.464 141.32C411.971 141.32 409.514 140.733 407.094 139.56C404.674 138.313 402.401 136.48 400.274 134.06H399.834L398.294 140H383.554V63.44H402.474V81.26L401.814 89.18H402.254C404.161 87.42 406.287 86.0633 408.634 85.11C411.054 84.1567 413.511 83.68 416.004 83.68C419.304 83.68 422.311 84.34 425.024 85.66C427.737 86.98 430.047 88.85 431.954 91.27C433.861 93.69 435.327 96.6233 436.354 100.07C437.381 103.517 437.894 107.33 437.894 111.51C437.894 116.277 437.234 120.53 435.914 124.27C434.594 127.937 432.834 131.053 430.634 133.62C428.507 136.113 426.014 138.02 423.154 139.34C420.367 140.66 417.471 141.32 414.464 141.32ZM409.954 125.92C411.127 125.92 412.227 125.7 413.254 125.26C414.281 124.747 415.161 123.94 415.894 122.84C416.701 121.74 417.324 120.31 417.764 118.55C418.277 116.717 418.534 114.48 418.534 111.84C418.534 107.293 417.837 104.03 416.444 102.05C415.124 100.07 413.107 99.08 410.394 99.08C408.927 99.08 407.571 99.3733 406.324 99.96C405.077 100.547 403.794 101.573 402.474 103.04V123.28C403.647 124.307 404.857 125.003 406.104 125.37C407.424 125.737 408.707 125.92 409.954 125.92Z" fill="#2E5262"/>
<path d="M467.38 140V68.5H494C497.813 68.5 501.443 68.8667 504.89 69.6C508.41 70.3333 511.453 71.58 514.02 73.34C516.66 75.1 518.75 77.4833 520.29 80.49C521.83 83.4233 522.6 87.1267 522.6 91.6C522.6 96.7333 521.537 100.987 519.41 104.36C517.357 107.733 514.57 110.373 511.05 112.28L526.56 140H505.44L493.12 116.02H486.3V140H467.38ZM486.3 101.06H492.68C500.307 101.06 504.12 97.9067 504.12 91.6C504.12 88.52 503.13 86.3933 501.15 85.22C499.243 84.0467 496.42 83.46 492.68 83.46H486.3V101.06ZM561.057 141.32C556.73 141.32 552.66 140.697 548.847 139.45C545.107 138.13 541.844 136.26 539.057 133.84C536.344 131.347 534.18 128.303 532.567 124.71C531.027 121.117 530.257 117.047 530.257 112.5C530.257 108.027 531.064 103.993 532.677 100.4C534.29 96.8067 536.417 93.8 539.057 91.38C541.77 88.8867 544.85 86.98 548.297 85.66C551.817 84.34 555.41 83.68 559.077 83.68C563.404 83.68 567.18 84.3767 570.407 85.77C573.707 87.1633 576.457 89.07 578.657 91.49C580.857 93.91 582.507 96.7333 583.607 99.96C584.707 103.187 585.257 106.633 585.257 110.3C585.257 111.987 585.147 113.563 584.927 115.03C584.78 116.497 584.634 117.56 584.487 118.22H549.177C549.984 121.3 551.597 123.537 554.017 124.93C556.437 126.323 559.664 127.02 563.697 127.02C565.897 127.02 568.024 126.763 570.077 126.25C572.204 125.663 574.477 124.82 576.897 123.72L583.057 134.94C579.757 137.067 576.127 138.68 572.167 139.78C568.207 140.807 564.504 141.32 561.057 141.32ZM559.737 97.98C554.31 97.98 550.827 100.62 549.287 105.9H568.537C567.73 100.62 564.797 97.98 559.737 97.98ZM615.024 141.32C611.504 141.32 608.314 140.66 605.454 139.34C602.667 138.02 600.284 136.113 598.304 133.62C596.324 131.127 594.784 128.12 593.684 124.6C592.584 121.007 592.034 116.973 592.034 112.5C592.034 108.027 592.694 103.993 594.014 100.4C595.334 96.8067 597.057 93.8 599.184 91.38C601.311 88.8867 603.767 86.98 606.554 85.66C609.341 84.34 612.164 83.68 615.024 83.68C617.957 83.68 620.414 84.1567 622.394 85.11C624.374 86.0633 626.207 87.42 627.894 89.18H628.334L627.454 81.26V63.44H646.374V140H630.974L629.654 134.94H629.214C627.307 136.847 625.071 138.387 622.504 139.56C620.011 140.733 617.517 141.32 615.024 141.32ZM619.974 125.92C621.514 125.92 622.871 125.663 624.044 125.15C625.291 124.563 626.427 123.5 627.454 121.96V101.72C626.354 100.693 625.181 99.9967 623.934 99.63C622.761 99.2633 621.514 99.08 620.194 99.08C617.847 99.08 615.794 100.07 614.034 102.05C612.274 104.03 611.394 107.44 611.394 112.28C611.394 117.267 612.127 120.787 613.594 122.84C615.134 124.893 617.261 125.92 619.974 125.92ZM674.711 141.32C668.551 141.32 664.114 139.303 661.401 135.27C658.688 131.163 657.331 125.7 657.331 118.88V85H676.251V116.46C676.251 119.54 676.654 121.777 677.461 123.17C678.341 124.563 680.028 125.26 682.521 125.26C684.134 125.26 685.528 124.967 686.701 124.38C687.948 123.72 689.304 122.4 690.771 120.42V85H709.691V140H694.291L692.971 132.74H692.531C690.184 135.38 687.581 137.47 684.721 139.01C681.934 140.55 678.598 141.32 674.711 141.32ZM750.348 141.32C746.021 141.32 741.951 140.697 738.138 139.45C734.398 138.13 731.135 136.26 728.348 133.84C725.635 131.347 723.471 128.303 721.858 124.71C720.318 121.117 719.548 117.047 719.548 112.5C719.548 107.953 720.428 103.883 722.188 100.29C723.948 96.6967 726.295 93.69 729.228 91.27C732.235 88.7767 735.681 86.9067 739.568 85.66C743.455 84.34 747.525 83.68 751.778 83.68C756.105 83.68 760.065 84.34 763.658 85.66C767.251 86.98 770.221 88.74 772.568 90.94L763.988 102.6C761.935 101.207 759.991 100.253 758.158 99.74C756.398 99.1533 754.638 98.86 752.878 98.86C748.698 98.86 745.325 100.107 742.758 102.6C740.191 105.02 738.908 108.32 738.908 112.5C738.908 116.68 740.155 120.017 742.648 122.51C745.141 124.93 748.331 126.14 752.218 126.14C754.931 126.14 757.388 125.663 759.588 124.71C761.788 123.757 763.841 122.693 765.748 121.52L773.228 133.4C769.781 136.187 766.005 138.203 761.898 139.45C757.865 140.697 754.015 141.32 750.348 141.32ZM808.385 141.32C804.058 141.32 799.988 140.697 796.175 139.45C792.435 138.13 789.172 136.26 786.385 133.84C783.672 131.347 781.508 128.303 779.895 124.71C778.355 121.117 777.585 117.047 777.585 112.5C777.585 108.027 778.392 103.993 780.005 100.4C781.618 96.8067 783.745 93.8 786.385 91.38C789.098 88.8867 792.178 86.98 795.625 85.66C799.145 84.34 802.738 83.68 806.405 83.68C810.732 83.68 814.508 84.3767 817.735 85.77C821.035 87.1633 823.785 89.07 825.985 91.49C828.185 93.91 829.835 96.7333 830.935 99.96C832.035 103.187 832.585 106.633 832.585 110.3C832.585 111.987 832.475 113.563 832.255 115.03C832.108 116.497 831.962 117.56 831.815 118.22H796.505C797.312 121.3 798.925 123.537 801.345 124.93C803.765 126.323 806.992 127.02 811.025 127.02C813.225 127.02 815.352 126.763 817.405 126.25C819.532 125.663 821.805 124.82 824.225 123.72L830.385 134.94C827.085 137.067 823.455 138.68 819.495 139.78C815.535 140.807 811.832 141.32 808.385 141.32ZM807.065 97.98C801.638 97.98 798.155 100.62 796.615 105.9H815.865C815.058 100.62 812.125 97.98 807.065 97.98ZM843.982 140V85H859.492L860.922 96.66H861.362C864.002 92.1133 867.192 88.8133 870.932 86.76C874.672 84.7067 878.632 83.68 882.812 83.68C885.379 83.68 887.359 83.9 888.752 84.34C890.219 84.7067 891.722 85.22 893.262 85.88L889.522 101.72C887.836 101.207 886.296 100.84 884.902 100.62C883.582 100.327 881.932 100.18 879.952 100.18C876.799 100.18 873.682 101.133 870.602 103.04C867.522 104.873 864.956 108.1 862.902 112.72V140H843.982Z" fill="#2E5262"/>
<rect x="100.281" y="170.515" width="37.2921" height="37.2921" transform="rotate(24.7813 100.281 170.515)" fill="#5ABC76"/>
</svg>
