<svg width="966" height="221" viewBox="0 0 966 221" fill="none" xmlns="http://www.w3.org/2000/svg">
<path fill-rule="evenodd" clip-rule="evenodd" d="M0 39.6665L0.0406936 39.624C11.0074 41.2694 24.1677 42.6599 38.9285 43.7184L87.6004 90.3337L91.3002 93.8772V99.0001V158H90.3368C81.1372 156.822 73.1595 154.664 67.3002 151.86V104.123L0 39.6665Z" fill="#2E5262"/>
<path fill-rule="evenodd" clip-rule="evenodd" d="M215.601 40.0425L215.56 40C204.593 41.6454 191.433 43.0359 176.672 44.0944L128 90.7097L124.3 94.2532V99.3761V158.376H125.264C134.463 157.198 142.441 155.04 148.3 152.236V104.499L215.601 40.0425Z" fill="#2E5262"/>
<circle cx="79.8003" cy="22.5" r="22.5" fill="#5ABC76"/>
<circle cx="111.3" cy="110" r="13" fill="#DB9D41"/>
<circle cx="95.8003" cy="80.5" r="16.5" fill="#5A9FBC"/>
<circle cx="136.116" cy="51.8155" r="26.7671" transform="rotate(-6.96528 136.116 51.8155)" fill="#EE6D6D"/>
<path d="M246.68 146V74.5H265.6V101.12H281V74.5H299.92V146H281V117.62H265.6V146H246.68ZM335.957 147.32C332.291 147.32 328.734 146.697 325.287 145.45C321.914 144.13 318.907 142.26 316.267 139.84C313.627 137.347 311.501 134.303 309.887 130.71C308.347 127.117 307.577 123.047 307.577 118.5C307.577 113.953 308.347 109.883 309.887 106.29C311.501 102.697 313.627 99.69 316.267 97.27C318.907 94.7767 321.914 92.9067 325.287 91.66C328.734 90.34 332.291 89.68 335.957 89.68C339.551 89.68 343.034 90.34 346.407 91.66C349.854 92.9067 352.897 94.7767 355.537 97.27C358.177 99.69 360.304 102.697 361.917 106.29C363.531 109.883 364.337 113.953 364.337 118.5C364.337 123.047 363.531 127.117 361.917 130.71C360.304 134.303 358.177 137.347 355.537 139.84C352.897 142.26 349.854 144.13 346.407 145.45C343.034 146.697 339.551 147.32 335.957 147.32ZM335.957 132.14C339.184 132.14 341.494 130.93 342.887 128.51C344.281 126.017 344.977 122.68 344.977 118.5C344.977 114.32 344.281 111.02 342.887 108.6C341.494 106.107 339.184 104.86 335.957 104.86C332.731 104.86 330.421 106.107 329.027 108.6C327.634 111.02 326.937 114.32 326.937 118.5C326.937 122.68 327.634 126.017 329.027 128.51C330.421 130.93 332.731 132.14 335.957 132.14ZM398.614 147.32C394.948 147.32 391.391 146.697 387.944 145.45C384.571 144.13 381.564 142.26 378.924 139.84C376.284 137.347 374.158 134.303 372.544 130.71C371.004 127.117 370.234 123.047 370.234 118.5C370.234 113.953 371.004 109.883 372.544 106.29C374.158 102.697 376.284 99.69 378.924 97.27C381.564 94.7767 384.571 92.9067 387.944 91.66C391.391 90.34 394.948 89.68 398.614 89.68C402.208 89.68 405.691 90.34 409.064 91.66C412.511 92.9067 415.554 94.7767 418.194 97.27C420.834 99.69 422.961 102.697 424.574 106.29C426.188 109.883 426.994 113.953 426.994 118.5C426.994 123.047 426.188 127.117 424.574 130.71C422.961 134.303 420.834 137.347 418.194 139.84C415.554 142.26 412.511 144.13 409.064 145.45C405.691 146.697 402.208 147.32 398.614 147.32ZM398.614 132.14C401.841 132.14 404.151 130.93 405.544 128.51C406.938 126.017 407.634 122.68 407.634 118.5C407.634 114.32 406.938 111.02 405.544 108.6C404.151 106.107 401.841 104.86 398.614 104.86C395.388 104.86 393.078 106.107 391.684 108.6C390.291 111.02 389.594 114.32 389.594 118.5C389.594 122.68 390.291 126.017 391.684 128.51C393.078 130.93 395.388 132.14 398.614 132.14ZM435.311 146V69.44H454.231V110.58H454.671L471.391 91H491.851L471.391 113.66L493.171 146H472.711L460.611 125.54L454.231 132.58V146H435.311Z" fill="#2E5262"/>
<path d="M522.68 148V76.5H549.3C553.114 76.5 556.744 76.8667 560.19 77.6C563.71 78.3333 566.754 79.58 569.32 81.34C571.96 83.1 574.05 85.4833 575.59 88.49C577.13 91.4233 577.9 95.1267 577.9 99.6C577.9 104.733 576.837 108.987 574.71 112.36C572.657 115.733 569.87 118.373 566.35 120.28L581.86 148H560.74L548.42 124.02H541.6V148H522.68ZM541.6 109.06H547.98C555.607 109.06 559.42 105.907 559.42 99.6C559.42 96.52 558.43 94.3933 556.45 93.22C554.544 92.0467 551.72 91.46 547.98 91.46H541.6V109.06ZM616.357 149.32C612.031 149.32 607.961 148.697 604.147 147.45C600.407 146.13 597.144 144.26 594.357 141.84C591.644 139.347 589.481 136.303 587.867 132.71C586.327 129.117 585.557 125.047 585.557 120.5C585.557 116.027 586.364 111.993 587.977 108.4C589.591 104.807 591.717 101.8 594.357 99.38C597.071 96.8867 600.151 94.98 603.597 93.66C607.117 92.34 610.711 91.68 614.377 91.68C618.704 91.68 622.481 92.3767 625.707 93.77C629.007 95.1633 631.757 97.07 633.957 99.49C636.157 101.91 637.807 104.733 638.907 107.96C640.007 111.187 640.557 114.633 640.557 118.3C640.557 119.987 640.447 121.563 640.227 123.03C640.081 124.497 639.934 125.56 639.787 126.22H604.477C605.284 129.3 606.897 131.537 609.317 132.93C611.737 134.323 614.964 135.02 618.997 135.02C621.197 135.02 623.324 134.763 625.377 134.25C627.504 133.663 629.777 132.82 632.197 131.72L638.357 142.94C635.057 145.067 631.427 146.68 627.467 147.78C623.507 148.807 619.804 149.32 616.357 149.32ZM615.037 105.98C609.611 105.98 606.127 108.62 604.587 113.9H623.837C623.031 108.62 620.097 105.98 615.037 105.98ZM670.324 149.32C666.804 149.32 663.614 148.66 660.754 147.34C657.968 146.02 655.584 144.113 653.604 141.62C651.624 139.127 650.084 136.12 648.984 132.6C647.884 129.007 647.334 124.973 647.334 120.5C647.334 116.027 647.994 111.993 649.314 108.4C650.634 104.807 652.358 101.8 654.484 99.38C656.611 96.8867 659.068 94.98 661.854 93.66C664.641 92.34 667.464 91.68 670.324 91.68C673.258 91.68 675.714 92.1567 677.694 93.11C679.674 94.0633 681.508 95.42 683.194 97.18H683.634L682.754 89.26V71.44H701.674V148H686.274L684.954 142.94H684.514C682.608 144.847 680.371 146.387 677.804 147.56C675.311 148.733 672.818 149.32 670.324 149.32ZM675.274 133.92C676.814 133.92 678.171 133.663 679.344 133.15C680.591 132.563 681.728 131.5 682.754 129.96V109.72C681.654 108.693 680.481 107.997 679.234 107.63C678.061 107.263 676.814 107.08 675.494 107.08C673.148 107.08 671.094 108.07 669.334 110.05C667.574 112.03 666.694 115.44 666.694 120.28C666.694 125.267 667.428 128.787 668.894 130.84C670.434 132.893 672.561 133.92 675.274 133.92ZM730.011 149.32C723.851 149.32 719.415 147.303 716.701 143.27C713.988 139.163 712.631 133.7 712.631 126.88V93H731.551V124.46C731.551 127.54 731.955 129.777 732.761 131.17C733.641 132.563 735.328 133.26 737.821 133.26C739.435 133.26 740.828 132.967 742.001 132.38C743.248 131.72 744.605 130.4 746.071 128.42V93H764.991V148H749.591L748.271 140.74H747.831C745.485 143.38 742.881 145.47 740.021 147.01C737.235 148.55 733.898 149.32 730.011 149.32ZM805.648 149.32C801.322 149.32 797.252 148.697 793.438 147.45C789.698 146.13 786.435 144.26 783.648 141.84C780.935 139.347 778.772 136.303 777.158 132.71C775.618 129.117 774.848 125.047 774.848 120.5C774.848 115.953 775.728 111.883 777.488 108.29C779.248 104.697 781.595 101.69 784.528 99.27C787.535 96.7767 790.982 94.9067 794.868 93.66C798.755 92.34 802.825 91.68 807.078 91.68C811.405 91.68 815.365 92.34 818.958 93.66C822.552 94.98 825.522 96.74 827.868 98.94L819.288 110.6C817.235 109.207 815.292 108.253 813.458 107.74C811.698 107.153 809.938 106.86 808.178 106.86C803.998 106.86 800.625 108.107 798.058 110.6C795.492 113.02 794.208 116.32 794.208 120.5C794.208 124.68 795.455 128.017 797.948 130.51C800.442 132.93 803.632 134.14 807.518 134.14C810.232 134.14 812.688 133.663 814.888 132.71C817.088 131.757 819.142 130.693 821.048 129.52L828.528 141.4C825.082 144.187 821.305 146.203 817.198 147.45C813.165 148.697 809.315 149.32 805.648 149.32ZM863.685 149.32C859.359 149.32 855.289 148.697 851.475 147.45C847.735 146.13 844.472 144.26 841.685 141.84C838.972 139.347 836.809 136.303 835.195 132.71C833.655 129.117 832.885 125.047 832.885 120.5C832.885 116.027 833.692 111.993 835.305 108.4C836.919 104.807 839.045 101.8 841.685 99.38C844.399 96.8867 847.479 94.98 850.925 93.66C854.445 92.34 858.039 91.68 861.705 91.68C866.032 91.68 869.809 92.3767 873.035 93.77C876.335 95.1633 879.085 97.07 881.285 99.49C883.485 101.91 885.135 104.733 886.235 107.96C887.335 111.187 887.885 114.633 887.885 118.3C887.885 119.987 887.775 121.563 887.555 123.03C887.409 124.497 887.262 125.56 887.115 126.22H851.805C852.612 129.3 854.225 131.537 856.645 132.93C859.065 134.323 862.292 135.02 866.325 135.02C868.525 135.02 870.652 134.763 872.705 134.25C874.832 133.663 877.105 132.82 879.525 131.72L885.685 142.94C882.385 145.067 878.755 146.68 874.795 147.78C870.835 148.807 867.132 149.32 863.685 149.32ZM862.365 105.98C856.939 105.98 853.455 108.62 851.915 113.9H871.165C870.359 108.62 867.425 105.98 862.365 105.98ZM899.282 148V93H914.792L916.222 104.66H916.662C919.302 100.113 922.492 96.8133 926.232 94.76C929.972 92.7067 933.932 91.68 938.112 91.68C940.679 91.68 942.659 91.9 944.052 92.34C945.519 92.7067 947.022 93.22 948.562 93.88L944.822 109.72C943.136 109.207 941.596 108.84 940.202 108.62C938.882 108.327 937.232 108.18 935.252 108.18C932.099 108.18 928.982 109.133 925.902 111.04C922.822 112.873 920.256 116.1 918.202 120.72V148H899.282Z" fill="#2E5262"/>
<rect x="100.281" y="170.515" width="37.2921" height="37.2921" transform="rotate(24.7813 100.281 170.515)" fill="#5ABC76"/>
</svg>
